<?xml version="1.0"?>
<svg xmlns="http://www.w3.org/2000/svg" xmlns:xlink="http://www.w3.org/1999/xlink" version="1.1" id="Capa_1" x="0px" y="0px" viewBox="0 0 464 464" style="enable-background:new 0 0 464 464;" xml:space="preserve" width="512px" height="512px" class=""><g><path style="fill:#5FA1D7" d="M424,232c0-22.091,17.909-40,40-40v-88h-64l-48,16l-40-16H0v256h312l40-16l48,16h64v-88  C441.909,272,424,254.091,424,232z" data-original="#E9686A" class="" data-old_color="#E9686A"/><g>
	<path style="fill:#93D2FF" d="M352,152c-4.418,0-8-3.582-8-8v-24c0-4.418,3.582-8,8-8s8,3.582,8,8v24   C360,148.418,356.418,152,352,152z" data-original="#FDBD40" class="active-path" data-old_color="#FDBD40"/>
	<path style="fill:#93D2FF" d="M352,200c-4.418,0-8-3.582-8-8v-16c0-4.418,3.582-8,8-8s8,3.582,8,8v16   C360,196.418,356.418,200,352,200z" data-original="#FDBD40" class="active-path" data-old_color="#FDBD40"/>
	<path style="fill:#93D2FF" d="M352,248c-4.418,0-8-3.582-8-8v-16c0-4.418,3.582-8,8-8s8,3.582,8,8v16   C360,244.418,356.418,248,352,248z" data-original="#FDBD40" class="active-path" data-old_color="#FDBD40"/>
	<path style="fill:#93D2FF" d="M352,296c-4.418,0-8-3.582-8-8v-16c0-4.418,3.582-8,8-8s8,3.582,8,8v16   C360,292.418,356.418,296,352,296z" data-original="#FDBD40" class="active-path" data-old_color="#FDBD40"/>
	<path style="fill:#93D2FF" d="M352,352c-4.418,0-8-3.582-8-8v-24c0-4.418,3.582-8,8-8s8,3.582,8,8v24   C360,348.418,356.418,352,352,352z" data-original="#FDBD40" class="active-path" data-old_color="#FDBD40"/>
</g><path style="fill:#FFFFFF" d="M72,184L72,184c17.673,0,32,14.327,32,32v32c0,17.673-14.327,32-32,32l0,0c-17.673,0-32-14.327-32-32  v-32C40,198.327,54.327,184,72,184z" data-original="#FCF05A" class="" data-old_color="#FCF05A"/><g>
	<path style="fill:#93D2FF" d="M312,192H136c-4.418,0-8-3.582-8-8s3.582-8,8-8h176c4.418,0,8,3.582,8,8S316.418,192,312,192z" data-original="#FDBD40" class="active-path" data-old_color="#FDBD40"/>
	<path style="fill:#93D2FF" d="M312,224H136c-4.418,0-8-3.582-8-8s3.582-8,8-8h176c4.418,0,8,3.582,8,8S316.418,224,312,224z" data-original="#FDBD40" class="active-path" data-old_color="#FDBD40"/>
	<path style="fill:#93D2FF" d="M312,256H136c-4.418,0-8-3.582-8-8s3.582-8,8-8h176c4.418,0,8,3.582,8,8S316.418,256,312,256z" data-original="#FDBD40" class="active-path" data-old_color="#FDBD40"/>
	<path style="fill:#93D2FF" d="M312,288H136c-4.418,0-8-3.582-8-8s3.582-8,8-8h176c4.418,0,8,3.582,8,8S316.418,288,312,288z" data-original="#FDBD40" class="active-path" data-old_color="#FDBD40"/>
</g></g> </svg>
