<?xml version="1.0" encoding="iso-8859-1"?>
<!-- Generator: Adobe Illustrator 19.0.0, SVG Export Plug-In . SVG Version: 6.00 Build 0)  -->
<svg version="1.1" id="Capa_1" xmlns="http://www.w3.org/2000/svg" xmlns:xlink="http://www.w3.org/1999/xlink" x="0px" y="0px"
	 viewBox="0 0 427.886 427.886" style="enable-background:new 0 0 427.886 427.886;" xml:space="preserve">
<g>
	<path style="fill:#4DCFE0;" d="M318.433,190.694c-8.882,0-15.673-6.792-15.673-15.673v-52.245
		c0-50.155-40.229-90.906-89.861-91.429c-33.437,0-64.784,19.331-79.935,49.633c-3.657,7.837-13.061,10.971-20.898,6.792
		c-7.837-3.657-10.971-13.061-6.792-20.898C125.127,26.122,167.445,0,212.898,0c66.873,0.522,121.208,55.902,121.208,122.776v52.245
		C334.106,183.902,327.314,190.694,318.433,190.694z"/>
	<path style="fill:#4DCFE0;" d="M213.943,344.294c-8.882,0-15.673-6.792-15.673-15.673v-36.571c0-8.882,6.792-15.673,15.673-15.673
		s15.673,6.792,15.673,15.673v36.571C229.616,337.502,222.824,344.294,213.943,344.294z"/>
</g>
<path style="fill:#1185E0;" d="M349.78,427.886H78.106c-14.629,0-26.122-11.494-26.122-26.122V187.559
	c0-14.629,11.494-26.122,26.122-26.122H349.78c14.629,0,26.122,11.494,26.122,26.122v214.204
	C375.902,416.392,364.408,427.886,349.78,427.886z M83.331,396.539h261.224V192.784H83.331V396.539z"/>
<g>
</g>
<g>
</g>
<g>
</g>
<g>
</g>
<g>
</g>
<g>
</g>
<g>
</g>
<g>
</g>
<g>
</g>
<g>
</g>
<g>
</g>
<g>
</g>
<g>
</g>
<g>
</g>
<g>
</g>
</svg>
